<svg width="413" height="269" viewBox="0 0 413 269" fill="none" xmlns="http://www.w3.org/2000/svg">
<g clip-path="url(#clip0_12407_154)">
<path d="M20 0C8.95431 0 0 8.95429 0 20V248.372C0 259.418 8.95431 268.372 20 268.372H393C404.046 268.372 413 259.418 413 248.372V177.073L438.319 139.323C439.858 137.03 439.858 133.312 438.319 131.018L413 93.2681V20C413 8.9543 404.046 0 393 0H20Z" fill="#969AF7"/>
<path d="M20 0C8.95431 0 0 8.95429 0 20V248.372C0 259.418 8.95431 268.372 20 268.372H393C404.046 268.372 413 259.418 413 248.372V177.073L438.319 139.323C439.858 137.03 439.858 133.312 438.319 131.018L413 93.2681V20C413 8.9543 404.046 0 393 0H20Z" fill="url(#paint0_linear_12407_154)"/>
<path d="M20 0C8.95431 0 0 8.95429 0 20V248.372C0 259.418 8.95431 268.372 20 268.372H393C404.046 268.372 413 259.418 413 248.372V177.073L438.319 139.323C439.858 137.03 439.858 133.312 438.319 131.018L413 93.2681V20C413 8.9543 404.046 0 393 0H20Z" fill="url(#paint1_linear_12407_154)"/>
<mask id="mask0_12407_154" style="mask-type:alpha" maskUnits="userSpaceOnUse" x="0" y="0" width="440" height="269">
<path d="M20 0C8.95431 0 0 8.95429 0 20V248.372C0 259.418 8.95431 268.372 20 268.372H393C404.046 268.372 413 259.418 413 248.372V177.073L438.319 139.323C439.858 137.03 439.858 133.312 438.319 131.018L413 93.2681V20C413 8.9543 404.046 0 393 0H20Z" fill="#969AF7"/>
<path d="M20 0C8.95431 0 0 8.95429 0 20V248.372C0 259.418 8.95431 268.372 20 268.372H393C404.046 268.372 413 259.418 413 248.372V177.073L438.319 139.323C439.858 137.03 439.858 133.312 438.319 131.018L413 93.2681V20C413 8.9543 404.046 0 393 0H20Z" fill="url(#paint2_linear_12407_154)"/>
<path d="M20 0C8.95431 0 0 8.95429 0 20V248.372C0 259.418 8.95431 268.372 20 268.372H393C404.046 268.372 413 259.418 413 248.372V177.073L438.319 139.323C439.858 137.03 439.858 133.312 438.319 131.018L413 93.2681V20C413 8.9543 404.046 0 393 0H20Z" fill="url(#paint3_linear_12407_154)"/>
</mask>
<g mask="url(#mask0_12407_154)">
<path opacity="0.06" d="M652.186 400.986L382.412 131.213C370.697 119.497 351.702 119.497 339.986 131.213L70.2127 400.986C58.497 412.702 58.497 431.697 70.2127 443.413L339.986 713.186C351.702 724.902 370.697 724.902 382.412 713.186L652.186 443.413C663.901 431.697 663.901 412.702 652.186 400.986Z" fill="white"/>
</g>
</g>
<defs>
<linearGradient id="paint0_linear_12407_154" x1="219.736" y1="0" x2="219.736" y2="268.372" gradientUnits="userSpaceOnUse">
<stop stop-color="#969AF7"/>
<stop offset="1" stop-color="#686EEC"/>
</linearGradient>
<linearGradient id="paint1_linear_12407_154" x1="-53.467" y1="-21.0171" x2="439.923" y2="52.8479" gradientUnits="userSpaceOnUse">
<stop offset="0.0851517" stop-color="#041080"/>
<stop offset="1" stop-color="#0926C0"/>
</linearGradient>
<linearGradient id="paint2_linear_12407_154" x1="219.736" y1="0" x2="219.736" y2="268.372" gradientUnits="userSpaceOnUse">
<stop stop-color="#969AF7"/>
<stop offset="1" stop-color="#686EEC"/>
</linearGradient>
<linearGradient id="paint3_linear_12407_154" x1="-53.467" y1="-21.0171" x2="439.923" y2="52.8479" gradientUnits="userSpaceOnUse">
<stop offset="0.0851517" stop-color="#041080"/>
<stop offset="1" stop-color="#0926C0"/>
</linearGradient>
<clipPath id="clip0_12407_154">
<rect width="413" height="269" fill="white"/>
</clipPath>
</defs>
</svg>
