<svg width="413" height="268" viewBox="0 0 413 268" fill="none" xmlns="http://www.w3.org/2000/svg">
<g clip-path="url(#clip0_12407_124)">
<path d="M20 0C8.95431 0 0 8.95429 0 20V84.9821L28.0166 130.995C29.4527 133.354 29.4527 137.178 28.0166 139.537L0 185.55V248.372C0 259.418 8.95431 268.372 20 268.372H393C404.046 268.372 413 259.418 413 248.372V20C413 8.9543 404.046 0 393 0H20Z" fill="#969AF7"/>
<path d="M20 0C8.95431 0 0 8.95429 0 20V84.9821L28.0166 130.995C29.4527 133.354 29.4527 137.178 28.0166 139.537L0 185.55V248.372C0 259.418 8.95431 268.372 20 268.372H393C404.046 268.372 413 259.418 413 248.372V20C413 8.9543 404.046 0 393 0H20Z" fill="url(#paint0_linear_12407_124)"/>
<mask id="mask0_12407_124" style="mask-type:alpha" maskUnits="userSpaceOnUse" x="0" y="0" width="413" height="299">
<path d="M20 0C8.95431 0 0 8.95429 0 20V84.9821L28.0166 130.995C29.4527 133.354 29.4527 137.178 28.0166 139.537L0 185.55V248.372C0 259.418 8.95431 268.372 20 268.372H393C404.046 268.372 413 259.418 413 248.372V20C413 8.9543 404.046 0 393 0H20Z" fill="#969AF7"/>
<path d="M20 0C8.95431 0 0 8.95429 0 20V84.9821L28.0166 130.995C29.4527 133.354 29.4527 137.178 28.0166 139.537L0 185.55V248.372C0 259.418 8.95431 268.372 20 268.372H393C404.046 268.372 413 259.418 413 248.372V20C413 8.9543 404.046 0 393 0H20Z" fill="url(#paint1_linear_12407_124)"/>
<path d="M150.208 244.803C148.217 242.891 148.26 239.835 150.304 237.979L205.538 187.839C207.583 185.982 210.855 186.029 212.846 187.941L266.927 239.883C268.918 241.796 268.875 244.851 266.831 246.707L211.597 296.848C209.552 298.704 206.28 298.658 204.288 296.745L150.208 244.803Z" fill="#969AF7"/>
<path d="M150.208 244.803C148.217 242.891 148.26 239.835 150.304 237.979L205.538 187.839C207.583 185.982 210.855 186.029 212.846 187.941L266.927 239.883C268.918 241.796 268.875 244.851 266.831 246.707L211.597 296.848C209.552 298.704 206.28 298.658 204.288 296.745L150.208 244.803Z" fill="url(#paint2_linear_12407_124)"/>
</mask>
<g mask="url(#mask0_12407_124)">
<path opacity="0.06" d="M626.186 400.986L356.412 131.213C344.697 119.497 325.702 119.497 313.986 131.213L44.2127 400.986C32.497 412.702 32.497 431.697 44.2127 443.413L313.986 713.186C325.702 724.902 344.697 724.902 356.412 713.186L626.186 443.413C637.901 431.697 637.901 412.702 626.186 400.986Z" fill="white"/>
</g>
</g>
<defs>
<linearGradient id="paint0_linear_12407_124" x1="-50.2463" y1="-23.3538" x2="416.335" y2="35.7218" gradientUnits="userSpaceOnUse">
<stop offset="0.0851517" stop-color="#041080"/>
<stop offset="1" stop-color="#0926C0"/>
</linearGradient>
<linearGradient id="paint1_linear_12407_124" x1="-50.2463" y1="-23.3538" x2="416.335" y2="35.7218" gradientUnits="userSpaceOnUse">
<stop offset="0.0851517" stop-color="#041080"/>
<stop offset="1" stop-color="#0926C0"/>
</linearGradient>
<linearGradient id="paint2_linear_12407_124" x1="-50.2465" y1="-23.3538" x2="416.335" y2="35.7218" gradientUnits="userSpaceOnUse">
<stop offset="0.0851517" stop-color="#041080"/>
<stop offset="1" stop-color="#0926C0"/>
</linearGradient>
<clipPath id="clip0_12407_124">
<rect width="413" height="268" fill="white"/>
</clipPath>
</defs>
</svg>
