<svg width="413" height="269" viewBox="0 0 413 269" fill="none" xmlns="http://www.w3.org/2000/svg">
<g clip-path="url(#clip0_12407_104)">
<path d="M182.334 0.62793H19.7451C8.69942 0.62793 -0.254883 9.58222 -0.254883 20.6279V249C-0.254883 260.046 8.69942 269 19.7451 269H392.745C403.791 269 412.745 260.046 412.745 249V20.6279C412.745 9.58223 403.791 0.62793 392.745 0.62793H234.461L213.4 21.4088C211.435 23.3484 208.163 23.4388 206.094 21.6109L182.334 0.62793Z" fill="#969AF7"/>
<path d="M182.334 0.62793H19.7451C8.69942 0.62793 -0.254883 9.58222 -0.254883 20.6279V249C-0.254883 260.046 8.69942 269 19.7451 269H392.745C403.791 269 412.745 260.046 412.745 249V20.6279C412.745 9.58223 403.791 0.62793 392.745 0.62793H234.461L213.4 21.4088C211.435 23.3484 208.163 23.4388 206.094 21.6109L182.334 0.62793Z" fill="url(#paint0_linear_12407_104)"/>
<mask id="mask0_12407_104" style="mask-type:alpha" maskUnits="userSpaceOnUse" x="-29" y="1" width="442" height="268">
<path d="M391.596 1C403.417 1 413 9.94187 413 20.9723V85.439L383.048 131.394C381.512 133.75 381.512 137.57 383.048 139.926L413 185.881V249.028C413 260.058 403.417 269 391.596 269H-7.5956C-19.4169 269 -29 260.058 -29 249.028V20.9723C-29 9.94189 -19.4169 1 -7.5956 1H391.596Z" fill="#969AF7"/>
<path d="M391.596 1C403.417 1 413 9.94187 413 20.9723V85.439L383.048 131.394C381.512 133.75 381.512 137.57 383.048 139.926L413 185.881V249.028C413 260.058 403.417 269 391.596 269H-7.5956C-19.4169 269 -29 260.058 -29 249.028V20.9723C-29 9.94189 -19.4169 1 -7.5956 1H391.596Z" fill="url(#paint1_linear_12407_104)"/>
</mask>
<g mask="url(#mask0_12407_104)">
<path opacity="0.06" d="M623.186 402.359L353.412 132.585C341.697 120.87 322.702 120.87 310.986 132.585L41.2128 402.359C29.4971 414.074 29.4971 433.069 41.2128 444.785L310.986 714.558C322.702 726.274 341.697 726.274 353.412 714.558L623.186 444.785C634.901 433.069 634.901 414.074 623.186 402.359Z" fill="white"/>
</g>
</g>
<defs>
<linearGradient id="paint0_linear_12407_104" x1="-80.5005" y1="-20.3892" x2="413.182" y2="53.5654" gradientUnits="userSpaceOnUse">
<stop offset="0.0851517" stop-color="#041080"/>
<stop offset="1" stop-color="#0926C0"/>
</linearGradient>
<linearGradient id="paint1_linear_12407_104" x1="466.774" y1="-19.988" x2="-29.2965" y2="54.8091" gradientUnits="userSpaceOnUse">
<stop offset="0.0851517" stop-color="#041080"/>
<stop offset="1" stop-color="#0926C0"/>
</linearGradient>
<clipPath id="clip0_12407_104">
<rect width="413" height="269" fill="white"/>
</clipPath>
</defs>
</svg>
