<svg width="414" height="269" viewBox="0 0 414 269" fill="none" xmlns="http://www.w3.org/2000/svg">
<g clip-path="url(#clip0_12407_113)">
<path d="M393.822 0C404.867 0 413.822 8.95429 413.822 20V85.8705L386.634 130.575C385.199 132.934 385.199 136.76 386.634 139.119L413.822 183.823V248.372C413.822 259.418 404.867 268.372 393.822 268.372H19.8213C8.77559 268.372 -0.178711 259.418 -0.178711 248.372V20C-0.178711 8.9543 8.77559 0 19.8213 0H393.822Z" fill="#969AF7"/>
<path d="M393.822 0C404.867 0 413.822 8.95429 413.822 20V85.8705L386.634 130.575C385.199 132.934 385.199 136.76 386.634 139.119L413.822 183.823V248.372C413.822 259.418 404.867 268.372 393.822 268.372H19.8213C8.77559 268.372 -0.178711 259.418 -0.178711 248.372V20C-0.178711 8.9543 8.77559 0 19.8213 0H393.822Z" fill="url(#paint0_linear_12407_113)"/>
<mask id="mask0_12407_113" style="mask-type:alpha" maskUnits="userSpaceOnUse" x="-28" y="0" width="442" height="269">
<path d="M393.822 0C404.867 0 413.822 8.95429 413.822 20V85.8705L386.634 130.575C385.199 132.934 385.199 136.76 386.634 139.119L413.822 183.823V248.372C413.822 259.418 404.867 268.372 393.822 268.372H19.8213C8.77559 268.372 -0.178711 259.418 -0.178711 248.372V20C-0.178711 8.9543 8.77559 0 19.8213 0H393.822Z" fill="#969AF7"/>
<path d="M393.822 0C404.867 0 413.822 8.95429 413.822 20V85.8705L386.634 130.575C385.199 132.934 385.199 136.76 386.634 139.119L413.822 183.823V248.372C413.822 259.418 404.867 268.372 393.822 268.372H19.8213C8.77559 268.372 -0.178711 259.418 -0.178711 248.372V20C-0.178711 8.9543 8.77559 0 19.8213 0H393.822Z" fill="url(#paint1_linear_12407_113)"/>
<path d="M22.1983 65.9281C20.6601 63.6347 18.1662 63.6347 16.628 65.9281L-26.8464 130.747C-28.3845 133.04 -28.3845 136.758 -26.8464 139.051L16.6281 203.87C18.1662 206.163 20.6601 206.163 22.1983 203.87L65.6727 139.051C67.2109 136.758 67.2109 133.04 65.6727 130.747L22.1983 65.9281Z" fill="#969AF7"/>
<path d="M22.1983 65.9281C20.6601 63.6347 18.1662 63.6347 16.628 65.9281L-26.8464 130.747C-28.3845 133.04 -28.3845 136.758 -26.8464 139.051L16.6281 203.87C18.1662 206.163 20.6601 206.163 22.1983 203.87L65.6727 139.051C67.2109 136.758 67.2109 133.04 65.6727 130.747L22.1983 65.9281Z" fill="url(#paint2_linear_12407_113)"/>
</mask>
<g mask="url(#mask0_12407_113)">
<path opacity="0.06" d="M624.185 401.359L354.411 131.585C342.696 119.87 323.701 119.87 311.985 131.585L42.2118 401.359C30.4961 413.074 30.4961 432.069 42.2118 443.785L311.985 713.558C323.701 725.274 342.696 725.274 354.411 713.558L624.185 443.785C635.9 432.069 635.9 413.074 624.185 401.359Z" fill="white"/>
</g>
</g>
<defs>
<linearGradient id="paint0_linear_12407_113" x1="-81.7531" y1="-21.0171" x2="414.157" y2="53.6219" gradientUnits="userSpaceOnUse">
<stop offset="0.0851517" stop-color="#041080"/>
<stop offset="1" stop-color="#0926C0"/>
</linearGradient>
<linearGradient id="paint1_linear_12407_113" x1="-81.7531" y1="-21.0171" x2="414.157" y2="53.6219" gradientUnits="userSpaceOnUse">
<stop offset="0.0851517" stop-color="#041080"/>
<stop offset="1" stop-color="#0926C0"/>
</linearGradient>
<linearGradient id="paint2_linear_12407_113" x1="-81.7528" y1="-21.0172" x2="414.157" y2="53.6218" gradientUnits="userSpaceOnUse">
<stop offset="0.0851517" stop-color="#041080"/>
<stop offset="1" stop-color="#0926C0"/>
</linearGradient>
<clipPath id="clip0_12407_113">
<rect width="414" height="269" fill="white"/>
</clipPath>
</defs>
</svg>
