<svg width="413" height="269" viewBox="0 0 413 269" fill="none" xmlns="http://www.w3.org/2000/svg">
<g clip-path="url(#clip0_12407_145)">
<path d="M393 0.62793C404.046 0.62793 413 9.58222 413 20.6279V85.1841L385.013 131.203C383.578 133.562 383.578 137.388 385.013 139.747L413 185.766V249C413 260.046 404.046 269 393 269H20C8.95432 269 0 260.046 0 249V20.6279C0 9.58223 8.95432 0.62793 20 0.62793H393Z" fill="#969AF7"/>
<path d="M393 0.62793C404.046 0.62793 413 9.58222 413 20.6279V85.1841L385.013 131.203C383.578 133.562 383.578 137.388 385.013 139.747L413 185.766V249C413 260.046 404.046 269 393 269H20C8.95432 269 0 260.046 0 249V20.6279C0 9.58223 8.95432 0.62793 20 0.62793H393Z" fill="url(#paint0_linear_12407_145)"/>
<mask id="mask0_12407_145" style="mask-type:alpha" maskUnits="userSpaceOnUse" x="0" y="0" width="413" height="269">
<path d="M393 0.62793C404.046 0.62793 413 9.58222 413 20.6279V85.1841L385.013 131.203C383.578 133.562 383.578 137.388 385.013 139.747L413 185.766V249C413 260.046 404.046 269 393 269H20C8.95432 269 0 260.046 0 249V20.6279C0 9.58223 8.95432 0.62793 20 0.62793H393Z" fill="#969AF7"/>
<path d="M393 0.62793C404.046 0.62793 413 9.58222 413 20.6279V85.1841L385.013 131.203C383.578 133.562 383.578 137.388 385.013 139.747L413 185.766V249C413 260.046 404.046 269 393 269H20C8.95432 269 0 260.046 0 249V20.6279C0 9.58223 8.95432 0.62793 20 0.62793H393Z" fill="url(#paint1_linear_12407_145)"/>
</mask>
<g mask="url(#mask0_12407_145)">
<path opacity="0.06" d="M652.186 401.986L382.412 132.213C370.697 120.497 351.702 120.497 339.986 132.213L70.2127 401.986C58.497 413.702 58.497 432.697 70.2127 444.413L339.986 714.186C351.702 725.902 370.697 725.902 382.412 714.186L652.186 444.413C663.901 432.697 663.901 413.702 652.186 401.986Z" fill="white"/>
</g>
</g>
<defs>
<linearGradient id="paint0_linear_12407_145" x1="463.246" y1="-20.3892" x2="-1.61356" y2="45.0124" gradientUnits="userSpaceOnUse">
<stop offset="0.0851517" stop-color="#041080"/>
<stop offset="1" stop-color="#0926C0"/>
</linearGradient>
<linearGradient id="paint1_linear_12407_145" x1="463.246" y1="-20.3892" x2="-1.61356" y2="45.0124" gradientUnits="userSpaceOnUse">
<stop offset="0.0851517" stop-color="#041080"/>
<stop offset="1" stop-color="#0926C0"/>
</linearGradient>
<clipPath id="clip0_12407_145">
<rect width="413" height="269" fill="white"/>
</clipPath>
</defs>
</svg>
